<svg xmlns="http://www.w3.org/2000/svg" width="3000" height="2000" viewBox="0 0 3000 2000"><rect width="3000" height="2000" fill="#eee7d7"/><rect x="150" y="150" width="2700" height="1700" fill="none" stroke="#26241f" stroke-width="12"/><path d="M150 1180 C650 930 900 1330 1350 1080 S2150 920 2850 1160 L2850 1850 L150 1850Z" fill="#7fa6a0"/><path d="M150 1120 C650 870 900 1270 1350 1020 S2150 860 2850 1100" fill="none" stroke="#f7f1e3" stroke-width="20"/><path d="M150 600 Q700 430 1150 610 T2150 560 T2850 650" fill="none" stroke="#a99b80" stroke-width="28"/><g fill="#657650"><path d="M500 1070 l55 -180 l55 180z"/><path d="M610 1040 l45 -150 l45 150z"/><path d="M2380 1030 l50 -170 l50 170z"/><path d="M2500 1060 l45 -150 l45 150z"/></g><g fill="#26241f" font-family="Arial,sans-serif"><text x="250" y="330" font-size="92" font-weight="700" letter-spacing="10">RÍO NEUQUÉN</text><text x="255" y="400" font-size="30" letter-spacing="6">POSTALES DEL RÍO · SERIE 01</text><text x="260" y="1660" font-size="34" letter-spacing="4">PAISAJE · AGUA · VALLE · CHANAR</text><text x="250" y="1740" font-size="24" letter-spacing="3">CONCEPTO VISUAL OCARINA · GENERACIÓN IA + CURADURÍA</text></g><circle cx="2520" cy="420" r="95" fill="none" stroke="#26241f" stroke-width="8"/><path d="M2520 350v140 M2450 420h140" stroke="#26241f" stroke-width="7"/></svg>