<svg xmlns="http://www.w3.org/2000/svg" width="3200" height="1800" viewBox="0 0 3200 1800"><metadata>Ocarina Producciones — OC-LAB-VP-016 — Original pixel-art inspired artwork. Fictional/interpretive scene; not a literal map of streets or buildings. No third-party assets embedded.</metadata><rect width="3200" height="1800" fill="#C9D9E4"/><rect y="1120" width="3200" height="680" fill="#DCC8A6"/><path d="M0 1260 Q650 1090 1200 1270 T2300 1210 T3200 1300 V1800 H0Z" fill="#B7D1D0"/><g shape-rendering="crispEdges"><rect x="360" y="780" width="520" height="340" fill="#D9B9B2"/><rect x="430" y="660" width="380" height="120" fill="#CFA38E"/><rect x="540" y="900" width="110" height="220" fill="#E7D6BE"/><rect x="1020" y="850" width="420" height="270" fill="#B8C8B0"/><rect x="1090" y="730" width="280" height="120" fill="#A9B59A"/><rect x="1190" y="930" width="90" height="190" fill="#F4EBDD"/><rect x="1540" y="690" width="30" height="480" fill="#6B665E"/><rect x="1500" y="620" width="110" height="90" fill="#A9B59A"/><rect x="1620" y="760" width="28" height="410" fill="#6B665E"/><rect x="1580" y="690" width="105" height="90" fill="#A9B59A"/><rect x="1800" y="900" width="250" height="170" fill="#E7D6BE"/><rect x="1880" y="790" width="90" height="110" fill="#CFA38E"/><rect x="2140" y="1020" width="420" height="48" fill="#B8C8B0"/><rect x="2280" y="900" width="130" height="120" fill="#D9B9B2"/><rect x="2300" y="820" width="90" height="80" fill="#CFA38E"/></g><g fill="#6B665E" font-family="Georgia,serif"><text x="220" y="300" font-size="64" font-weight="700" letter-spacing="10">OCARINA · HISTORIA VIVA</text><text x="220" y="520" font-size="170" font-weight="700">Pueblo y río</text><text x="220" y="680" font-family="Arial,sans-serif" font-size="46" letter-spacing="7">ESCENA PIXEL · INTERPRETACIÓN ARTÍSTICA</text><text x="220" y="1630" font-family="Arial,sans-serif" font-size="42" letter-spacing="6">SAN PATRICIO DEL CHANAR · OC-LAB-VP-016</text></g></svg>